<svg height="63" viewBox="0 0 178 63" width="178" xmlns="http://www.w3.org/2000/svg"><g fill="none" transform="translate(3 2.5)"><path d="m19.8701103 0h132.2597797c6.90927 0 9.414738.71939849 11.940664 2.07027845 2.525926 1.35087997 4.508288 3.33324142 5.859168 5.85916735 1.35088 2.5259259 2.070278 5.0313943 2.070278 11.9406645v18.2597794c0 6.9092702-.719398 9.4147386-2.070278 11.9406645s-3.333242 4.5082874-5.859168 5.8591673c-2.525926 1.35088-5.031394 2.0702785-11.940664 2.0702785h-132.2597797c-6.9092702 0-9.4147386-.7193985-11.9406645-2.0702785-2.52592593-1.3508799-4.50828738-3.3332414-5.85916735-5.8591673-1.35087996-2.5259259-2.07027845-5.0313943-2.07027845-11.9406645v-18.2597794c0-6.9092702.71939849-9.4147386 2.07027845-11.9406645 1.35087997-2.52592593 3.33324142-4.50828738 5.85916735-5.85916735 2.5259259-1.35087996 5.0313943-2.07027845 11.9406645-2.07027845z" fill="#000"/><path d="m74.008799 29.7557665c3.3119273.0000144 5.4951117 2.6180658 5.4951117 6.6619924 0 4.0551834-2.1704574 6.6605655-5.4458467 6.6605655-1.6930201.0885626-3.2877525-.7981992-4.1058466-2.2830838h-.0619776v6.4635197h-2.6785877v-17.3664556h2.5927702v2.1704574h.0492651c.8544388-1.4755756 2.4508908-2.3619556 4.1551116-2.3069956zm14.362687.0000144c3.3120282 0 5.495155 2.6180514 5.495155 6.661978 0 4.0551834-2.1704574 6.6605655-5.4458467 6.6605655-1.6930201.0885626-3.2877525-.7981992-4.1058466-2.2830838h-.0619776v6.4635197h-2.6785878v-17.3664556h2.5927127v2.1704574h.049265c.854445-1.4755747 2.4509032-2.3619495 4.155126-2.3069812zm19.230124-5.0109942c3.782078 0 6.374834 2.1211924 6.462107 5.2093803h-2.703955c-.161863-1.7861959-1.638401-2.8643765-3.796189-2.8643765s-3.634312 1.0908644-3.634312 2.6785877c0 1.2653963.943069 2.009993 3.25005 2.58l1.971985.484204c3.67232.8684655 5.198124 2.3436201 5.198124 4.9616427 0 3.3485806-2.667331 5.4458467-6.909716 5.4458467-3.969323 0-6.649309-2.0480011-6.822443-5.2853966l2.741964.0001297c.198473 1.7749391 1.922749 2.9403352 4.27898 2.9403352 2.257731 0 3.88205-1.1654538 3.88205-2.7658609 0-1.3892651-.979665-2.2211062-3.299316-2.7911853l-2.31965-.5588078c-3.286646-.7938617-4.81245-2.3309219-4.81245-4.8251189 0-3.0881879 2.691257-5.2093803 6.512771-5.2093803zm44.326864 4.9870535c3.610386 0 5.880786 2.4801151 5.880786 6.4367685v.9177305h-9.216697v.1618626c-.086052.9715093.249412 1.9331687.92106 2.6403632.671648.7071946 1.614745 1.0917629 2.589398 1.0558832 1.299862.1217927 2.525377-.6246228 3.013584-1.835461l2.543448.0000144c-.360336 2.3689156-2.667331 3.9946471-5.618981 3.9946471-3.796189 0-6.152435-2.543462-6.152435-6.6239698 0-4.0931772 2.368915-6.7478387 6.039837-6.7478387zm-21.690434.0000144c3.783519 0 6.190443 2.58 6.190443 6.6859043 0 4.1171179-2.394254 6.6859042-6.190443 6.6859042-3.794849 0-6.189046-2.5688008-6.189046-6.6859042 0-4.1058466 2.418181-6.6859043 6.189046-6.6859043zm-10.107748-2.9277378v3.0881879h2.481527v2.1211924h-2.481527v7.1940345c0 1.1176012.496873 1.6384009 1.587723 1.6384009.294598-.005137.588719-.025825.881135-.0619776v2.108523c-.490448.0916398-.988946.1331431-1.487795.1238688-2.641978 0-3.672321-.9923343-3.672321-3.5231269v-7.4797227h-1.897381v-2.1211924h1.897353v-3.0881879zm-61.0444436-1.7608861 6.4621072 17.8985699h-2.9389947l-1.636974-4.8377883h-6.8224424l-1.6384009 4.8377883h-2.8897153l6.4621072-17.8985699zm85.3065906 4.7125214c.308683-.0010778.616515.0324456.91773.0999425v2.5054539c-.389694-.1190788-.796212-.1737518-1.20352-.1618626-.787479-.0319467-1.549584.2818899-2.086208.8591054-.536625.5772155-.794157 1.3601425-.704977 2.1432075v7.7401729h-2.678587v-13.049467h2.554733v2.2211061h.061977c.356265-1.4298267 1.666381-2.4138832 3.138852-2.3576587zm-117.0482153-9.1552093c1.2333697 0 3.5798004-1.7023532 6.0001575-1.4483025 2.3005414.0719782 4.4324582 1.2245239 5.7526217 3.1099522-2.0831944 1.2807266-3.3651026 3.5393408-3.396606 5.9845334.0029738 2.7664437 1.6596989 5.2630577 4.2076196 6.3407032-.4900217 1.5918541-1.2286621 3.0962157-2.1885606 4.4573607-1.2891064 1.9283699-2.6407237 3.8123176-4.7859865 3.8471404-2.0844815.0481119-2.7850163-1.2267252-5.1758548-1.2267252-2.4132368 0-3.159909 1.1919168-5.1591352 1.2748371-2.0430285.0756704-3.6044041-2.0581625-4.9403829-3.9684436-2.6702423-3.9011473-4.7495061-10.9940574-1.961953-15.8202717 1.3089928-2.3522314 3.7564818-3.8448653 6.447002-3.9317903 2.0448734-.0420727 3.9438399 1.3810063 5.2010782 1.3810063zm102.8938013 11.3383649c-2.170457 0-3.45978 1.6749965-3.45978 4.4788512 0 2.8277809 1.289323 4.4774531 3.45978 4.4774531 2.170458 0 3.461193-1.6496722 3.461193-4.4774531 0-2.816524-1.290735-4.4788512-3.461193-4.4788512zm-56.9358289.0999282c-2.0465886 0-3.4231844 1.7735266-3.4231844 4.378923 0 2.6293227 1.3765958 4.3901799 3.4231844 4.3901799 2.0831986 0 3.4485231-1.7242616 3.4485231-4.3901799 0-2.6419777-1.3653389-4.378923-3.4485231-4.378923zm14.3627303 0c-2.0465886 0-3.4231844 1.7735266-3.4231844 4.378923 0 2.6293227 1.3765958 4.3901799 3.4231844 4.3901799 2.0831986 0 3.4485375-1.7242616 3.4485375-4.3901799 0-2.6419777-1.3653533-4.378923-3.4485375-4.378923zm-30.0668011-4.0185879h-.0746038l-2.6673885 7.8513724h5.4079106zm94.3303487 3.8820497c-.881031-.0052577-1.727662.3416332-2.351712.9635698-.62405.6219365-.973812 1.4673853-.971555 2.3484295h6.524053c.04861-.8729805-.269161-1.7266498-.876753-2.3553504-.607592-.6287007-1.449916-.975429-2.324033-.9566489zm-3.749749-18.3468269c1.8059 0 2.895351 1.2337877 2.895351 3.2718436v.4469454h-4.583016v.0717787c-.040557.4816099.123927.957984.453 1.3119671.329072.3539831.7922.55273 1.275484.5473626.626655.0752303 1.23666-.2356116 1.544094-.786828l1.233024.0000433c-.359172 1.2242453-1.543894 2.0152438-2.812301 1.8776778-.865433.0228456-1.697162-.3358746-2.27451-.9809835-.577348-.6451088-.841948-1.5113888-.723594-2.3689951-.11521-.8599897.148398-1.7276578.722531-2.3782167s1.402296-1.0199939 2.269937-1.0125952zm-55.2606122.4621057c.9930599.6162037 1.5509706 1.7420824 1.439766 2.9054862.1132634 1.1646195-.4441522 2.2926214-1.4380682 2.9101149-.9939159.6174936-2.2521292.6174936-3.2460451 0-.993916-.6174935-1.5513316-1.7454954-1.4380682-2.9101149-.1112046-1.1634038.4467061-2.2892825 1.439766-2.9054862.9930598-.6162037 2.2495896-.6162037 3.2426495 0zm25.9612742.0001141c.992986.6161942 1.550808 1.7420444 1.439518 2.9053721.113408 1.1645778-.443906 2.2926116-1.437772 2.9101323-.993867.6175207-2.252064.6175207-3.24593 0-.993867-.6175207-1.55118-1.7455545-1.437773-2.9101323-.11129-1.1633277.446533-2.2891779 1.439519-2.9053721s2.249451-.6161942 3.242438 0zm-54.1213667 0c.9929862.6161942 1.5508089 1.7420444 1.4395188 2.9053721.1134075 1.1645778-.4439061 2.2926116-1.4377727 2.9101323s-2.2520632.6175207-3.2459298 0-1.5511802-1.7455545-1.4377727-2.9101323c-.1112901-1.1633277.4465327-2.2891779 1.4395188-2.9053721.9929862-.6161942 2.2494514-.6161942 3.2424376 0zm33.8506895-.4622053c1.6271442 0 2.5448742.8100335 2.5448742 2.181008v4.4345155h-1.2330234v-.9120948h-.1013407c-.4187836.6660815-1.1635171 1.0553688-1.9494711 1.0190279-.5509725.0573103-1.1004764-.1211293-1.5126643-.4912054-.412188-.3700761-.6485886-.8972478-.6507594-1.4511887 0-1.1682787.869878-1.8417885 2.4139576-1.9375079l1.7580466-.1013407v-.5602059c0-.6854873-.4532296-1.0725593-1.3287289-1.0725593-.7150347 0-1.2104956.2625114-1.3526695.7213766h-1.2400575c.1309026-1.1147906 1.1795357-1.8298253 2.6518364-1.8298253zm10.2892562-2.4083652v9.0238599h-1.227388v-1.0254131h-.101341c-.415994.7270512-1.201063 1.163229-2.038142 1.132375-1.65107.0000721-2.694082-1.2991381-2.694082-3.3548792 0-2.0508118 1.054268-3.3499931 2.694067-3.3499931.828017-.0381521 1.603532.4055254 1.99029 1.1386592h.09572v-3.5646087zm25.889248.9177449v1.6454347h1.406158v1.0789012h-1.406158v3.3373237c0 .6798516.28011.9775461.91773.9775461.16324-.0005224.326316-.0103925.488428-.0295619v1.0669237c-.230025.0411513-.463081.0630443-.696745.0654513-1.424448 0-1.991702-.5010965-1.991702-1.752411v-3.6653296h-1.030328v-1.0789012h1.030328v-1.645377zm-77.231938.6848413c.7839007.8277972 1.1552701 1.9634996 1.0118915 3.0945128 0 2.7475559-1.4849702 4.326905-4.0467372 4.326905h-3.1064786v-8.6002498h3.1064786c1.1371408-.0816027 2.2509451.3510348 3.0348457 1.178832zm28.899861-1.6025862v9.0238599h-1.2808763v-9.0238599zm-5.568303 2.4083363c.6396912-.048095 1.2665434.197305 1.703565.6669114s.6367877 1.1124581.5428943 1.7470462v4.2015083h-1.2808763v-3.8798587c0-1.0429975-.4532296-1.5616928-1.400522-1.5616928-.4338928-.0202088-.8549743.1500761-1.1528498.4662115-.2978755.3161353-.4428369.7465918-.3968798 1.1785169v3.7968952h-1.2808763v-6.4902566h1.2330237v1.0310343h.0957195c.3328558-.759114 1.1106437-1.2234714 1.9368017-1.1563157zm-12.4653349.1252814 1.1626431 4.9524469h.0957195l1.3343644-4.9524469h1.2288007l1.3343645 4.9524469h.1013407l1.1570074-4.9524469h1.2808764l-1.7819729 6.4902566h-1.3287288l-1.3413982-4.780077h-.1013407l-1.335777 4.780077h-1.3160738l-1.7890066-6.4902566zm56.8815769-.1252814c.639691-.048095 1.266544.197305 1.703565.6669114.437022.4696064.636788 1.1124581.542895 1.7470462v4.2015083h-1.280877v-3.8798587c0-1.0429975-.453229-1.5616928-1.400522-1.5616928-.433893-.0202088-.854974.1500761-1.15285.4662115-.297875.3161353-.442837.7465918-.396879 1.1785169v3.7968952h-1.280877v-6.4902566h1.233024v1.0310343h.09572c.332855-.759114 1.110643-1.2234714 1.936801-1.1563157zm13.909501-2.4083363v3.5766151h.101341c.348844-.7657576 1.140244-1.2307068 1.97896-1.1626431.636059-.0346105 1.254426.216192 1.686671.6840947.432245.4679026.633347 1.1041705.548532 1.7354985v4.1903091h-1.282159v-3.874324c0-1.03667-.482849-1.5616927-1.387853-1.5616927-.445621-.0365472-.884653.1254556-1.199725.4426984-.315073.3172428-.474058.7573768-.434453 1.2027362v3.7905821h-1.280876l-.000058-9.0238743zm-39.3342477 6.0912359-1.5849128.1013406c-.8938042.0598157-1.2991813.3638521-1.2991813.9360212 0 .5841321.5067178.924058 1.2035195.924058.4124917.0417554.8242688-.0856805 1.1410669-.3531349.316798-.2674544.5114903-.6520259.5395077-1.0656778zm-8.5797828-2.5448601c-1.1133781 0-1.7396983.8227173-1.7396983 2.2295812 0 1.4181208.6263634 2.2344962 1.7396983 2.2344962 1.109155 0 1.7411541-.8220255 1.7411541-2.2345106 0-1.4068495-.6320136-2.2295668-1.7411541-2.2295668zm-28.1596334 0c-1.1133781 0-1.7396984.8227173-1.7396984 2.2295812 0 1.4181208.6263635 2.2344962 1.7396984 2.2344962 1.1091694 0 1.7411541-.8220255 1.7411541-2.2345106 0-1.4068495-.6320136-2.2295668-1.7411541-2.2295668zm54.1213659 0c-1.113378 0-1.739698.8227173-1.739698 2.2295812 0 1.4181208.626363 2.2344962 1.739698 2.2344962 1.109155 0 1.74114-.8220255 1.74114-2.2345106 0-1.4068495-.631999-2.2295668-1.74114-2.2295668zm-11.365995.0302537c-1.078238 0-1.734164.8339742-1.734164 2.1993131.000044 1.3765957.648935 2.2049487 1.734164 2.2049487 1.079564 0 1.746775-.8403017 1.746775-2.1993131 0-1.3526695-.674216-2.2049487-1.746775-2.2049487zm-51.5230613-1.9375223h-1.6215084v6.1686358h1.6215084c.8126595.0485761 1.6039478-.2716077 2.1541537-.8716482.5502059-.6000406.8007529-1.4160559.6820734-2.2214691.110045-.8020708-.1441101-1.6113524-.6929518-2.2064996-.5488417-.5951473-1.3349344-.9138788-2.1432753-.8690189zm-21.0016324-1.2308186c.1395433 1.8221898-.4367168 3.6270071-1.6064031 5.031173-1.1348165 1.411452-2.8543062 2.2244454-4.6652887 2.2057991-.1151708-1.769732.4778603-3.5126642 1.6484759-4.8449085 1.1854887-1.3502918 2.8361952-2.2043715 4.6232159-2.3920636zm114.8020577 3.0902202c-.447547-.0056228-.878399.1697341-1.194819.4862924s-.491588.7474863-.485769 1.1950317h3.278171c.03265-.4404732-.122228-.8742524-.426469-1.1944405-.30424-.320188-.729548-.4970072-1.171114-.4868836z" fill="#fff"/></g></svg>